<svg width="700" height="700" viewBox="0 0 700 700" xmlns="http://www.w3.org/2000/svg">
  <g fill="#FFF" fill-rule="evenodd">
    <path d="M591.656 225.672c-23.623 21.553-54.993 34.504-88.968 34.504-.852 0-1.702-.008-2.55-.024L491 259.98V148.276L528.31 110h63.346v115.672zM491 264.904l2.77 5.428c11.352 22.25 17.353 46.927 17.353 72.478 0 28.19-7.304 54.674-20.123 77.664v-155.57zM338.66 502.01c-39.26-3.104-74.524-20.404-100.66-46.77V154.77l38.663-27.823h23.998l38 33.47V502.01zm-127-81.86c-12.707-22.915-19.943-49.282-19.943-77.34 0-25.55 6-50.227 17.354-72.478l2.59-5.075V420.15zm0-160.168l-8.957.17c-.85.016-1.7.024-2.55.024-34.08 0-65.517-13.027-89.153-34.673V218h100.66v41.982zm253 195.44c-26.158 26.303-61.42 43.544-100.66 46.602V238h100.66v217.423z"/>
    <path d="M530.478 75.94l-92.54 92.358c.036.516.054 1.037.054 1.56 0 12.428-10.073 22.5-22.5 22.5-12.073 0-21.925-9.508-22.476-21.445l-93.623-80.25c-1.265.222-2.565.337-3.893.337-1.847 0-3.642-.223-5.36-.642L183.817 164.39c-1.42 11.062-10.87 19.61-22.316 19.61-12.426 0-22.5-10.074-22.5-22.5s10.074-22.5 22.5-22.5c1.847 0 3.642.223 5.36.642L273.183 65.61C274.604 54.547 284.054 46 295.5 46c11.943 0 21.713 9.306 22.455 21.062l94.002 80.574c1.152-.182 2.332-.277 3.535-.277.315 0 .628.006.94.02l92.09-91.914L492 40.058l72.82-23.812-18.675 74.303-15.667-14.61z" fill-rule="nonzero"/>
    <path d="M637.783 160.764C671.475 213.572 691 276.296 691 343.58c0 187.972-152.38 340.353-340.352 340.353-187.97 0-340.35-152.38-340.35-340.352 0-68.034 19.962-131.407 54.35-184.58 13.99 61.93 69.347 108.176 135.505 108.176.896 0 1.79-.01 2.683-.026-11.585 22.707-18.12 48.42-18.12 75.66 0 92.067 74.637 166.702 166.704 166.702 92.068 0 166.703-74.635 166.703-166.702 0-27.24-6.533-52.953-18.118-75.66.892.017 1.786.026 2.683.026 65.528 0 120.46-45.37 135.095-106.412z"/>
  </g>
</svg>
