<?xml version="1.0" encoding="UTF-8"?>
<svg width="700px" height="700px" viewBox="0 0 700 700" version="1.1" xmlns="http://www.w3.org/2000/svg" xmlns:xlink="http://www.w3.org/1999/xlink">
    <!-- Generator: Sketch 47.1 (45422) - http://www.bohemiancoding.com/sketch -->
    <title>Logo Final Reduced</title>
    <desc>Created with Sketch.</desc>
    <defs></defs>
    <g id="Page-1" stroke="none" stroke-width="1" fill="none" fill-rule="evenodd">
        <g id="Logo-Final-Reduced" fill="#333333">
            <g id="Group" transform="translate(10.000000, 16.000000)">
                <path d="M581.65625,209.672489 L581.65625,209.672489 C558.032613,231.225432 526.662976,244.175863 492.687534,244.175863 C491.83644,244.175863 490.986332,244.167812 490.137281,244.15173 L481,243.978662 L481,132.276774 L518.311059,94 L581.65625,94 L581.65625,209.672489 Z M481,248.903896 L481,248.903896 L483.769414,254.331825 C495.122432,276.583237 501.122982,301.258857 501.122982,326.809558 C501.122982,354.999936 493.818912,381.484356 481,404.473593 L481,248.903896 Z M328.660004,486.010063 L328.660004,486.010063 C289.400652,482.906481 254.136202,465.605739 228,439.241184 L228,138.76794 L266.663278,110.945312 L290.660986,110.945312 L328.660004,144.414047 L328.660004,486.010063 Z M201.660004,404.149387 L201.659999,404.149381 C188.952915,381.235498 181.717306,354.867512 181.717306,326.809558 C181.717306,301.258857 187.717856,276.583237 199.070874,254.331825 L201.660004,249.257245 L201.660004,404.149387 Z M201.660004,243.982077 L201.660004,243.982077 L192.703007,244.15173 C191.853956,244.167812 191.003848,244.175863 190.152754,244.175863 C156.073827,244.175863 124.636018,231.149277 101,209.503025 L101,202 L201.660004,202 L201.660004,243.982077 Z M454.660004,439.422754 L454.660004,439.422754 C428.501964,465.725446 393.241448,482.966447 354,486.024213 L354,222 L454.660004,222 L454.660004,439.422754 Z" id="Bars"></path>
                <path d="M520.477861,59.9387415 L427.938875,152.298256 C427.974223,152.814045 427.992188,153.334612 427.992188,153.859375 C427.992188,166.285782 417.918594,176.359375 405.492188,176.359375 C393.418983,176.359375 383.566743,166.850298 383.016426,154.913103 L289.392987,74.6644414 C288.12846,74.8850083 286.827659,75 285.5,75 C283.653161,75 281.858291,74.777489 280.140739,74.3578131 L173.815947,148.391372 C172.397008,159.452163 162.946731,168 151.5,168 C139.073593,168 129,157.926407 129,145.5 C129,133.073593 139.073593,123 151.5,123 C153.346839,123 155.141709,123.222511 156.859261,123.642187 L263.184053,49.6086285 C264.602992,38.5478375 274.053269,30 285.5,30 C297.443447,30 307.213414,39.3057774 307.954804,51.0622365 L401.956954,131.635508 C403.108654,131.453753 404.289399,131.359375 405.492188,131.359375 C405.806844,131.359375 406.119992,131.365834 406.431507,131.378627 L498.523121,39.4656159 L482,24.0575559 L554.819414,0.24551753 L536.145006,74.548591 L520.477861,59.9387415 L520.477861,59.9387415 Z" id="Trend" fill-rule="nonzero"></path>
                <path d="M627.782506,144.763681 C661.475306,197.571603 681,260.296348 681,327.58133 C681,515.552344 528.619386,667.932959 340.648372,667.932959 C152.677358,667.932959 0.296743223,515.552344 0.296743223,327.58133 C0.296743223,259.54571 20.2595062,196.172643 54.647161,143 C68.637844,204.929076 123.994541,251.175863 190.152754,251.175863 C191.049034,251.175863 191.943331,251.167375 192.83557,251.150475 C181.250557,273.856588 174.717306,299.570112 174.717306,326.809558 C174.717306,418.876993 249.352709,493.512396 341.420144,493.512396 C433.487579,493.512396 508.122982,418.876993 508.122982,326.809558 C508.122982,299.570112 501.589731,273.856588 490.004718,251.150475 C490.896957,251.167375 491.791254,251.175863 492.687534,251.175863 C558.216188,251.175863 613.147921,205.805054 627.782511,144.763659 L627.782506,144.763681 Z" id="Bottom-C"></path>
            </g>
        </g>
    </g>
</svg>